Red Hot chili Peppers Live in Moscow Red Square 1999
[img]http://img91.imageshack.us/img91/2600/redhotchilipepperslivei.jpg[/img]
Tracks:
Give it Away
Scar Tissue
Suck my Kiss
Californication
My Lovely Man
Under The Bridge
Me and My Friends
If You Have To Ask
The Power of Equality
Fire 
I was a young girl when i got chance to attend the concert and i will never forget it,just felt right to dance even though the crowd was full of KGB(FSB)-we just didnt care-SiLvErDuSt.
[img]http://bender1.zikuka.com/img/2010/01/01/7c63a98c12a5ff8bf15e3b2fa1f136ed/image36575031.jpg[/img]

[img]http://bender1.zikuka.com/img/2010/01/01/5df0086d5059125ab6a361e2784f77ed/image36577921.jpg[/img]

[img]http://bender1.zikuka.com/img/2010/01/01/e8624acc3334f9c31627c68b91f29ff8/image36579375.jpg[/img]

[img]http://bender1.zikuka.com/img/2010/01/01/d5dcae89be09a350e84d4ea482c79e07/image36580750.jpg[/img]

[img]http://bender1.zikuka.com/img/2010/01/01/ae93ab69d82b09943332ad431ec5271f/image36582046.jpg[/img]

[img]http://bender1.zikuka.com/img/2010/01/01/508c298db2c59a4d8395721728ae2ef7/image36583125.jpg[/img]

[img]http://bender1.zikuka.com/img/2010/01/01/ab80d94c1a8b5fa0a3a32d699c1faf6d/image36584593.jpg[/img]

[img]http://bender1.zikuka.com/img/2010/01/01/cbc28360c33cd386de18c66e014d16a7/image36586203.jpg[/img]

[img]http://bender1.zikuka.com/img/2010/01/01/a0dd623333b7f026acc27901d5c72642/image36588031.jpg[/img]

[img]http://bender1.zikuka.com/img/2010/01/01/e3bb7e6cb34735c24bf3e38a4c650895/image36590437.jpg[/img]

[img]http://bender1.zikuka.com/img/2010/01/01/5fb15f18386e50a39c1f76f70e8b125e/image36591921.jpg[/img]

[img]http://bender1.zikuka.com/img/2010/01/01/51e58b6eb17371fbb9f5f21ee0ec22e3/image36593000.jpg[/img]

[img]http://bender1.zikuka.com/img/2010/01/01/e271395c9f816b69efd1846449c3043e/image36594281.jpg[/img] 
http://bender1.zikuka.com/img/2010/01/01/7c63a98c12a5ff8bf15e3b2fa1f136ed/image36575031.jpg 
http://bender1.zikuka.com/img/2010/01/01/5df0086d5059125ab6a361e2784f77ed/image36577921.jpg 
http://bender1.zikuka.com/img/2010/01/01/e8624acc3334f9c31627c68b91f29ff8/image36579375.jpg 
http://bender1.zikuka.com/img/2010/01/01/d5dcae89be09a350e84d4ea482c79e07/image36580750.jpg 
http://bender1.zikuka.com/img/2010/01/01/ae93ab69d82b09943332ad431ec5271f/image36582046.jpg 
http://bender1.zikuka.com/img/2010/01/01/508c298db2c59a4d8395721728ae2ef7/image36583125.jpg 
http://bender1.zikuka.com/img/2010/01/01/ab80d94c1a8b5fa0a3a32d699c1faf6d/image36584593.jpg 
http://bender1.zikuka.com/img/2010/01/01/cbc28360c33cd386de18c66e014d16a7/image36586203.jpg 
http://bender1.zikuka.com/img/2010/01/01/a0dd623333b7f026acc27901d5c72642/image36588031.jpg 
http://bender1.zikuka.com/img/2010/01/01/e3bb7e6cb34735c24bf3e38a4c650895/image36590437.jpg 
http://bender1.zikuka.com/img/2010/01/01/5fb15f18386e50a39c1f76f70e8b125e/image36591921.jpg 
http://bender1.zikuka.com/img/2010/01/01/51e58b6eb17371fbb9f5f21ee0ec22e3/image36593000.jpg 
http://bender1.zikuka.com/img/2010/01/01/e271395c9f816b69efd1846449c3043e/image36594281.jpg
Format                           : AVI
Format/Info                      : Audio Video Interleave
File size                        : 929 MiB
Duration                         : 41mn 1s
Overall bit rate                 : 3 165 Kbps
Writing application              : VirtualDubMod 1.5.10.2 (build 2540/release)
Writing library                  : VirtualDubMod build 2540/release

Video
Format                           : MPEG-4 Visual
Format profile                   : Streaming Video@L1
Format settings, BVOP            : Yes
Format settings, QPel            : No
Format settings, GMC             : No warppoints
Format settings, Matrix          : Default
Muxing mode                      : Packed bitstream
Codec ID                         : XVID
Codec ID/Hint                    : XviD
Duration                         : 41mn 1s
Bit rate                         : 2 995 Kbps
Width                            : 544 pixels
Height                           : 400 pixels
Display aspect ratio             : 4/3
Frame rate                       : 25.000 fps
Resolution                       : 24 bits
Colorimetry                      : 4:2:0
Scan type                        : Progressive
Bits/(Pixel*Frame)               : 0.551
Stream size                      : 879 MiB (95%)
Writing library                  : XviD 1.0.1 (UTC 2004-06-05)

Audio
Format                           : MPEG Audio
Format version                   : Version 1
Format profile                   : Layer 3
Codec ID                         : 55
Codec ID/Hint                    : MP3
Duration                         : 41mn 1s
Bit rate mode                    : Constant
Bit rate                         : 160 Kbps
Channel(s)                       : 2 channels
Sampling rate                    : 48.0 KHz
Resolution                       : 16 bits
Video delay                      : 72ms
Stream size                      : 46.9 MiB (5%)
Alignment                        : Aligned on interleaves
Interleave, duration             : 40 ms (1.00 video frame)
Interleave, preload duration     : 504 ms
credit to org ripper
A simple thankyou ensures my seedboxes are given priority on this file!(you will get the file faster)
No thanks=No re-seeds,No help~No worries i can't be arsed either.
Screens are posted for this file,how-ever some sites do not allow all picture hosts(and i do not have time upload pics to a certain host for a specific site).
I will not respond in this thread to any comments from now on(unless you are a member of a private site or are a respected member of a public site).
Thankyou to all the REAL contributors to the sites who keep the faith everyday.
Leechers,Ass-wipes,Zero posters keep on moaning into our deaf ears.
Contact? Old Skool-respected only (you know how);-)
[url]http://www.fhqhosting.com/ui/1ggggg.swf[/url]
[IMG]http://i43.servimg.com/u/f43/12/33/79/02/potpis10.gif[/IMG]
[IMG]http://www.myspaceninja.com/images/gg/glitterhkisses.gif[/IMG]